<svg width="18" height="18" viewBox="0 0 18 18" fill="none" xmlns="http://www.w3.org/2000/svg">
<path d="M11.8125 1.6875H6.1875C5.64067 1.6881 5.11641 1.90559 4.72975 2.29225C4.34309 2.67891 4.1256 3.20317 4.125 3.75V14.25C4.1256 14.7968 4.34309 15.3211 4.72975 15.7077C5.11641 16.0944 5.64067 16.3119 6.1875 16.3125H11.8125C12.3594 16.3121 12.8838 16.0947 13.2705 15.708C13.6572 15.3213 13.8746 14.7969 13.875 14.25V3.75C13.8746 3.20311 13.6572 2.67874 13.2705 2.29203C12.8838 1.90532 12.3594 1.6879 11.8125 1.6875ZM12.75 14.25C12.75 14.4986 12.6512 14.7371 12.4754 14.9129C12.2996 15.0887 12.0611 15.1875 11.8125 15.1875H6.1875C5.93892 15.1873 5.70058 15.0885 5.52481 14.9127C5.34903 14.7369 5.2502 14.4986 5.25 14.25V3.75C5.2502 3.50142 5.34903 3.26308 5.52481 3.08731C5.70058 2.91153 5.93892 2.8127 6.1875 2.8125H11.8125C12.0611 2.8127 12.2994 2.91153 12.4752 3.08731C12.651 3.26308 12.7498 3.50142 12.75 3.75V14.25Z" fill="#939CAA"/>
<path d="M10.875 12.9375H7.125C6.97582 12.9375 6.83274 12.9968 6.72725 13.1023C6.62176 13.2077 6.5625 13.3508 6.5625 13.5C6.5625 13.6492 6.62176 13.7923 6.72725 13.8977C6.83274 14.0032 6.97582 14.0625 7.125 14.0625H10.875C11.0242 14.0625 11.1673 14.0032 11.2727 13.8977C11.3782 13.7923 11.4375 13.6492 11.4375 13.5C11.4375 13.3508 11.3782 13.2077 11.2727 13.1023C11.1673 12.9968 11.0242 12.9375 10.875 12.9375Z" fill="#939CAA"/>
</svg>
