<svg width="18" height="18" viewBox="0 0 18 18" fill="none" xmlns="http://www.w3.org/2000/svg">
<path fill-rule="evenodd" clip-rule="evenodd" d="M14.5939 12.1323C14.4653 12.261 14.3127 12.3631 14.1448 12.4328C13.9768 12.5025 13.7967 12.5384 13.6148 12.5385H10.7534L10.9461 14.0769H11.954C12.0764 14.0769 12.1938 14.1255 12.2803 14.2121C12.3669 14.2987 12.4155 14.4161 12.4155 14.5385C12.4155 14.6609 12.3669 14.7783 12.2803 14.8648C12.1938 14.9514 12.0764 15 11.954 15H6.04661C5.92421 15 5.80682 14.9514 5.72027 14.8648C5.63372 14.7783 5.5851 14.6609 5.5851 14.5385C5.5851 14.4161 5.63372 14.2987 5.72027 14.2121C5.80682 14.1255 5.92421 14.0769 6.04661 14.0769H7.05456L7.24717 12.5385H4.38516C4.01789 12.5381 3.66576 12.3921 3.40606 12.1324C3.14637 11.8727 3.00033 11.5205 3 11.1532V4.38462C3.00049 4.01744 3.1466 3.66544 3.40628 3.40587C3.66596 3.14629 4.018 3.00033 4.38516 3H13.6185C13.9848 3.00049 14.3359 3.1462 14.5948 3.40518C14.8538 3.66417 14.9995 4.01528 15 4.38154V11.1538C14.9999 11.3357 14.964 11.5158 14.8943 11.6838C14.8246 11.8518 14.7225 12.0038 14.5939 12.1323ZM4.05902 11.48C3.97241 11.3933 3.92372 11.2758 3.92364 11.1532V10.128H14.077V11.1532C14.0768 11.2758 14.0281 11.3932 13.9414 11.4798C13.8548 11.5665 13.7374 11.6152 13.6148 11.6154H4.38516C4.26283 11.6151 4.14557 11.5665 4.05902 11.48ZM13.9422 4.05723C14.0284 4.14338 14.077 4.26031 14.077 4.38154V9.20492H3.92364V4.38462C3.92397 4.26231 3.9727 4.1451 4.05918 4.05862C4.14566 3.97213 4.26286 3.9234 4.38516 3.92308H13.6185C13.7398 3.92308 13.8567 3.97169 13.9422 4.05723ZM9.82365 12.5385L10.0156 14.0769H7.98498L8.17697 12.5385H9.82365Z" fill="#939CAA"/>
</svg>
