<svg xmlns="http://www.w3.org/2000/svg" xmlns:xlink="http://www.w3.org/1999/xlink" fill="none" version="1.1" width="12" height="12" viewBox="1 1 12 12"><defs><clipPath id="master_svg0_1596_10068"><rect x="0" y="1.7763568394002505e-15" width="14" height="14" rx="0"/></clipPath></defs><g transform="matrix(1,-1.6081230200044232e-16,1.6081230200044232e-16,1,-2.856600325181843e-31,0)" clip-path="url(#master_svg0_1596_10068)"><g><path d="M11.4158,2.2984300000000015L11.7016,2.5842100000000015C11.9236,2.806230000000002,11.9236,3.165230000000002,11.7016,3.3848800000000017L11.0143,4.074550000000002L9.92545,2.985730000000002L10.61275,2.2984300000000015C10.83477,2.0764200000000015,11.1938,2.0764200000000015,11.4134,2.2984300000000015L11.4158,2.2984300000000015ZM5.95517,6.958370000000002L9.12479,3.7864000000000018L10.2136,4.875220000000002L7.04163,8.044830000000001C6.97313,8.113320000000002,6.88811,8.162920000000002,6.796,8.188900000000002L5.41431,8.583330000000002L5.80874,7.201640000000002C5.83472,7.109530000000002,5.88432,7.0245000000000015,5.95281,6.956010000000002L5.95517,6.958370000000002ZM9.81209,1.497761000000002L5.15214,6.155340000000002C4.94666,6.360820000000002,4.79786,6.613540000000002,4.71992,6.889880000000002L4.04443,9.251730000000002C3.98775,9.450130000000001,4.04207,9.662700000000001,4.18851,9.809130000000001C4.33494,9.955570000000002,4.54751,10.009890000000002,4.7459,9.953210000000002L7.10776,9.277710000000003C7.38646,9.197410000000001,7.63918,9.048610000000002,7.8423,8.845500000000001L12.5022,4.187910000000002C13.1659,3.524230000000002,13.1659,2.447230000000002,12.5022,1.7835460000000016L12.2165,1.497761000000002C11.5528,0.8340800000000017,10.47577,0.8340800000000017,9.81209,1.497761000000002ZM3.07843,2.4188800000000015C1.930571,2.4188800000000015,1,3.349460000000002,1,4.497320000000002L1,10.921570000000001C1,12.069400000000002,1.930571,13.000000000000002,3.07843,13.000000000000002L9.50268,13.000000000000002C10.65054,13.000000000000002,11.5811,12.069400000000002,11.5811,10.921570000000001L11.5811,8.276290000000003C11.5811,7.962160000000002,11.3284,7.709440000000002,11.0143,7.709440000000002C10.70014,7.709440000000002,10.44742,7.962160000000002,10.44742,8.276290000000003L10.44742,10.921570000000001C10.44742,11.443500000000002,10.02465,11.866300000000003,9.50268,11.866300000000003L3.07843,11.866300000000003C2.55646,11.866300000000003,2.13369,11.443500000000002,2.13369,10.921570000000001L2.13369,4.497320000000002C2.13369,3.975350000000002,2.55646,3.5525800000000016,3.07843,3.5525800000000016L5.72371,3.5525800000000016C6.03784,3.5525800000000016,6.29056,3.2998600000000016,6.29056,2.985730000000002C6.29056,2.6716000000000015,6.03784,2.4188800000000015,5.72371,2.4188800000000015L3.07843,2.4188800000000015Z" fill="#474B56" fill-opacity="1"/></g></g></svg>
