<svg xmlns="http://www.w3.org/2000/svg" xmlns:xlink="http://www.w3.org/1999/xlink" fill="none" version="1.1" width="12.3212890625" height="14" viewBox="0 0 12.3212890625 14"><g transform="matrix(1,-3.2162460400088464e-16,3.2162460400088464e-16,1,0,0)"><g><path d="M11.7605,3.5L9.38164,3.5L9.38164,3.22109C9.38164,1.44102,7.93789,0,6.16055,0C4.3832,0,2.93945,1.44102,2.93945,3.22109L2.93945,3.5L0.560547,3.5C0.251563,3.5,0,3.75156,0,4.06055L0,13.4395C0,13.7484,0.251563,14,0.560547,14L11.7605,14C12.0695,14,12.3211,13.7484,12.3211,13.4395L12.3211,4.06055C12.3211,3.75156,12.0695,3.5,11.7605,3.5ZM4.2,3.22109C4.2,2.13828,5.07773,1.26055,6.16055,1.26055C7.24336,1.26055,8.12109,2.13828,8.12109,3.22109L8.12109,3.5L4.2,3.5L4.2,3.22109ZM11.0605,12.7395L1.26055,12.7395L1.26055,4.76055L2.93945,4.76055L2.93945,6.3C2.93945,6.37656,3.00234,6.43945,3.07891,6.43945L4.05781,6.43945C4.13438,6.43945,4.19727,6.37656,4.19727,6.3L4.19727,4.76055L8.11836,4.76055L8.11836,6.3C8.11836,6.37656,8.18125,6.43945,8.25781,6.43945L9.23672,6.43945C9.31328,6.43945,9.37617,6.37656,9.37617,6.3L9.37617,4.76055L11.0551,4.76055L11.0551,12.7395L11.0605,12.7395Z" fill="#fff" fill-opacity="1"/></g></g></svg>
